<svg width="223" height="323" viewBox="0 0 223 323" xmlns="http://www.w3.org/2000/svg">
  <!-- White card background -->
  <rect width="223" height="323" fill="white" stroke="black" stroke-width="2" rx="8"/>
  
  <!-- Spade symbol path definition -->
  <defs>
    <path id="spade" d="M458.915 307.705c0 62.63-54 91.32-91.34 91.34-41.64 0-73.1-18.86-91.83-34.26 2.47 50.95 14.53 87.35 68.65 116h-176.79c54.12-28.65 66.18-65.05 68.65-116-18.73 15.39-50.2 34.28-91.83 34.26-37.29 0-91.34-28.71-91.34-91.34 0-114.47 80.64-83.32 202.91-276.49 122.28 193.17 202.92 162.03 202.92 276.49z" fill="black"/>
  </defs>
  
  <!-- 3 and Spade in top left (3 on left, spade on right/outside) -->
  <text x="20" y="55" font-family="Arial, sans-serif" font-size="79.2" font-weight="bold" fill="black" dominant-baseline="middle" text-anchor="start">3</text>
  <g transform="translate(105, 45) scale(0.15) translate(-256, -256)">
    <use href="#spade"/>
  </g>
  
  <!-- 3 and Spade in bottom right (spade on left/outside, 3 on right) -->
  <g transform="translate(113, 278) scale(0.15) translate(-256, -256)">
    <use href="#spade"/>
  </g>
  <text x="153" y="288" font-family="Arial, sans-serif" font-size="87.12" font-weight="bold" fill="black" dominant-baseline="middle" text-anchor="start">3</text>
</svg>

