<?xml version="1.0" encoding="UTF-8" standalone="no"?>
<!-- Created with Inkscape (http://www.inkscape.org/) -->

<svg
   width="61.742645mm"
   height="61.742641mm"
   viewBox="0 0 61.742645 61.742641"
   version="1.1"
   id="svg1"
   xml:space="preserve"
   inkscape:version="1.4.2 (f4327f4, 2025-05-13)"
   sodipodi:docname="POKROnlineLogoSVG.svg"
   xmlns:inkscape="http://www.inkscape.org/namespaces/inkscape"
   xmlns:sodipodi="http://sodipodi.sourceforge.net/DTD/sodipodi-0.dtd"
   xmlns:xlink="http://www.w3.org/1999/xlink"
   xmlns="http://www.w3.org/2000/svg"
   xmlns:svg="http://www.w3.org/2000/svg"><sodipodi:namedview
     id="namedview1"
     pagecolor="#ffffff"
     bordercolor="#000000"
     borderopacity="0.25"
     inkscape:showpageshadow="2"
     inkscape:pageopacity="0.0"
     inkscape:pagecheckerboard="0"
     inkscape:deskcolor="#d1d1d1"
     inkscape:document-units="mm"
     inkscape:zoom="2.665432"
     inkscape:cx="48.397408"
     inkscape:cy="126.05837"
     inkscape:window-width="1728"
     inkscape:window-height="992"
     inkscape:window-x="-8"
     inkscape:window-y="-8"
     inkscape:window-maximized="1"
     inkscape:current-layer="layer1" /><defs
     id="defs1"><linearGradient
       id="linearGradient173"
       inkscape:collect="always"><stop
         style="stop-color:#dd7838;stop-opacity:1;"
         offset="0"
         id="stop173" /><stop
         style="stop-color:#f6d55f;stop-opacity:1;"
         offset="0.5"
         id="stop175" /><stop
         style="stop-color:#dd7838;stop-opacity:1;"
         offset="1"
         id="stop174" /></linearGradient><inkscape:path-effect
       effect="bspline"
       id="path-effect168"
       is_visible="true"
       lpeversion="1.3"
       weight="33.333333"
       steps="2"
       helper_size="0"
       apply_no_weight="true"
       apply_with_weight="true"
       only_selected="false"
       uniform="false" /><inkscape:path-effect
       effect="bspline"
       id="path-effect167"
       is_visible="true"
       lpeversion="1.3"
       weight="33.333333"
       steps="2"
       helper_size="0"
       apply_no_weight="true"
       apply_with_weight="true"
       only_selected="false"
       uniform="false" /><inkscape:path-effect
       effect="bspline"
       id="path-effect166"
       is_visible="true"
       lpeversion="1.3"
       weight="33.333333"
       steps="2"
       helper_size="0"
       apply_no_weight="true"
       apply_with_weight="true"
       only_selected="false"
       uniform="false" /><inkscape:path-effect
       effect="bspline"
       id="path-effect165"
       is_visible="true"
       lpeversion="1.3"
       weight="33.333333"
       steps="2"
       helper_size="0"
       apply_no_weight="true"
       apply_with_weight="true"
       only_selected="false"
       uniform="false" /><inkscape:path-effect
       effect="bspline"
       id="path-effect164"
       is_visible="true"
       lpeversion="1.3"
       weight="33.333333"
       steps="2"
       helper_size="0"
       apply_no_weight="true"
       apply_with_weight="true"
       only_selected="false"
       uniform="false" /><inkscape:path-effect
       effect="bspline"
       id="path-effect163"
       is_visible="true"
       lpeversion="1.3"
       weight="33.333333"
       steps="2"
       helper_size="0"
       apply_no_weight="true"
       apply_with_weight="true"
       only_selected="false"
       uniform="false" /><inkscape:path-effect
       effect="bspline"
       id="path-effect162"
       is_visible="true"
       lpeversion="1.3"
       weight="33.333333"
       steps="2"
       helper_size="0"
       apply_no_weight="true"
       apply_with_weight="true"
       only_selected="false"
       uniform="false" /><inkscape:path-effect
       effect="bspline"
       id="path-effect161"
       is_visible="true"
       lpeversion="1.3"
       weight="33.333333"
       steps="2"
       helper_size="0"
       apply_no_weight="true"
       apply_with_weight="true"
       only_selected="false"
       uniform="false" /><inkscape:path-effect
       effect="bspline"
       id="path-effect160"
       is_visible="true"
       lpeversion="1.3"
       weight="33.333333"
       steps="2"
       helper_size="0"
       apply_no_weight="true"
       apply_with_weight="true"
       only_selected="false"
       uniform="false" /><inkscape:path-effect
       effect="bspline"
       id="path-effect159"
       is_visible="true"
       lpeversion="1.3"
       weight="33.333333"
       steps="2"
       helper_size="0"
       apply_no_weight="true"
       apply_with_weight="true"
       only_selected="false"
       uniform="false" /><inkscape:path-effect
       effect="bspline"
       id="path-effect158"
       is_visible="true"
       lpeversion="1.3"
       weight="33.333333"
       steps="2"
       helper_size="0"
       apply_no_weight="true"
       apply_with_weight="true"
       only_selected="false"
       uniform="false" /><inkscape:path-effect
       effect="bspline"
       id="path-effect157"
       is_visible="true"
       lpeversion="1.3"
       weight="33.333333"
       steps="2"
       helper_size="0"
       apply_no_weight="true"
       apply_with_weight="true"
       only_selected="false"
       uniform="false" /><inkscape:path-effect
       effect="bspline"
       id="path-effect156"
       is_visible="true"
       lpeversion="1.3"
       weight="33.333333"
       steps="2"
       helper_size="0"
       apply_no_weight="true"
       apply_with_weight="true"
       only_selected="false"
       uniform="false" /><inkscape:path-effect
       effect="bspline"
       id="path-effect155"
       is_visible="true"
       lpeversion="1.3"
       weight="33.333333"
       steps="2"
       helper_size="0"
       apply_no_weight="true"
       apply_with_weight="true"
       only_selected="false"
       uniform="false" /><inkscape:path-effect
       effect="bspline"
       id="path-effect154"
       is_visible="true"
       lpeversion="1.3"
       weight="33.333333"
       steps="2"
       helper_size="0"
       apply_no_weight="true"
       apply_with_weight="true"
       only_selected="false"
       uniform="false" /><inkscape:path-effect
       effect="bspline"
       id="path-effect153"
       is_visible="true"
       lpeversion="1.3"
       weight="33.333333"
       steps="2"
       helper_size="0"
       apply_no_weight="true"
       apply_with_weight="true"
       only_selected="false"
       uniform="false" /><inkscape:path-effect
       effect="bspline"
       id="path-effect152"
       is_visible="true"
       lpeversion="1.3"
       weight="33.333333"
       steps="2"
       helper_size="0"
       apply_no_weight="true"
       apply_with_weight="true"
       only_selected="false"
       uniform="false" /><inkscape:path-effect
       effect="bspline"
       id="path-effect151"
       is_visible="true"
       lpeversion="1.3"
       weight="33.333333"
       steps="2"
       helper_size="0"
       apply_no_weight="true"
       apply_with_weight="true"
       only_selected="false"
       uniform="false" /><inkscape:path-effect
       effect="bspline"
       id="path-effect150"
       is_visible="true"
       lpeversion="1.3"
       weight="33.333333"
       steps="2"
       helper_size="0"
       apply_no_weight="true"
       apply_with_weight="true"
       only_selected="false"
       uniform="false" /><inkscape:path-effect
       effect="bspline"
       id="path-effect149"
       is_visible="true"
       lpeversion="1.3"
       weight="33.333333"
       steps="2"
       helper_size="0"
       apply_no_weight="true"
       apply_with_weight="true"
       only_selected="false"
       uniform="false" /><inkscape:path-effect
       effect="bspline"
       id="path-effect147"
       is_visible="true"
       lpeversion="1.3"
       weight="33.333333"
       steps="2"
       helper_size="0"
       apply_no_weight="true"
       apply_with_weight="true"
       only_selected="false"
       uniform="false" /><inkscape:path-effect
       effect="bspline"
       id="path-effect144"
       is_visible="true"
       lpeversion="1.3"
       weight="33.333333"
       steps="2"
       helper_size="0"
       apply_no_weight="true"
       apply_with_weight="true"
       only_selected="false"
       uniform="false" /><inkscape:path-effect
       effect="bspline"
       id="path-effect140"
       is_visible="true"
       lpeversion="1.3"
       weight="33.333333"
       steps="2"
       helper_size="0"
       apply_no_weight="true"
       apply_with_weight="true"
       only_selected="false"
       uniform="false" /><inkscape:path-effect
       effect="bspline"
       id="path-effect139"
       is_visible="true"
       lpeversion="1.3"
       weight="33.333333"
       steps="2"
       helper_size="0"
       apply_no_weight="true"
       apply_with_weight="true"
       only_selected="false"
       uniform="false" /><inkscape:path-effect
       effect="bspline"
       id="path-effect138"
       is_visible="true"
       lpeversion="1.3"
       weight="33.333333"
       steps="2"
       helper_size="0"
       apply_no_weight="true"
       apply_with_weight="true"
       only_selected="false"
       uniform="false" /><inkscape:path-effect
       effect="bspline"
       id="path-effect137"
       is_visible="true"
       lpeversion="1.3"
       weight="33.333333"
       steps="2"
       helper_size="0"
       apply_no_weight="true"
       apply_with_weight="true"
       only_selected="false"
       uniform="false" /><inkscape:path-effect
       effect="bspline"
       id="path-effect136"
       is_visible="true"
       lpeversion="1.3"
       weight="33.333333"
       steps="2"
       helper_size="0"
       apply_no_weight="true"
       apply_with_weight="true"
       only_selected="false"
       uniform="false" /><inkscape:path-effect
       effect="bspline"
       id="path-effect135"
       is_visible="true"
       lpeversion="1.3"
       weight="33.333333"
       steps="2"
       helper_size="0"
       apply_no_weight="true"
       apply_with_weight="true"
       only_selected="false"
       uniform="false" /><inkscape:path-effect
       effect="bspline"
       id="path-effect134"
       is_visible="true"
       lpeversion="1.3"
       weight="33.333333"
       steps="2"
       helper_size="0"
       apply_no_weight="true"
       apply_with_weight="true"
       only_selected="false"
       uniform="false" /><inkscape:path-effect
       effect="bspline"
       id="path-effect133"
       is_visible="true"
       lpeversion="1.3"
       weight="33.333333"
       steps="2"
       helper_size="0"
       apply_no_weight="true"
       apply_with_weight="true"
       only_selected="false"
       uniform="false" /><inkscape:path-effect
       effect="bspline"
       id="path-effect132"
       is_visible="true"
       lpeversion="1.3"
       weight="33.333333"
       steps="2"
       helper_size="0"
       apply_no_weight="true"
       apply_with_weight="true"
       only_selected="false"
       uniform="false" /><inkscape:path-effect
       effect="bspline"
       id="path-effect131"
       is_visible="true"
       lpeversion="1.3"
       weight="33.333333"
       steps="2"
       helper_size="0"
       apply_no_weight="true"
       apply_with_weight="true"
       only_selected="false"
       uniform="false" /><inkscape:path-effect
       effect="bspline"
       id="path-effect130"
       is_visible="true"
       lpeversion="1.3"
       weight="33.333333"
       steps="2"
       helper_size="0"
       apply_no_weight="true"
       apply_with_weight="true"
       only_selected="false"
       uniform="false" /><inkscape:path-effect
       effect="bspline"
       id="path-effect129"
       is_visible="true"
       lpeversion="1.3"
       weight="33.333333"
       steps="2"
       helper_size="0"
       apply_no_weight="true"
       apply_with_weight="true"
       only_selected="false"
       uniform="false" /><inkscape:path-effect
       effect="bspline"
       id="path-effect128"
       is_visible="true"
       lpeversion="1.3"
       weight="33.333333"
       steps="2"
       helper_size="0"
       apply_no_weight="true"
       apply_with_weight="true"
       only_selected="false"
       uniform="false" /><inkscape:path-effect
       effect="bspline"
       id="path-effect127"
       is_visible="true"
       lpeversion="1.3"
       weight="33.333333"
       steps="2"
       helper_size="0"
       apply_no_weight="true"
       apply_with_weight="true"
       only_selected="false"
       uniform="false" /><inkscape:path-effect
       effect="bspline"
       id="path-effect126"
       is_visible="true"
       lpeversion="1.3"
       weight="33.333333"
       steps="2"
       helper_size="0"
       apply_no_weight="true"
       apply_with_weight="true"
       only_selected="false"
       uniform="false" /><inkscape:path-effect
       effect="bspline"
       id="path-effect125"
       is_visible="true"
       lpeversion="1.3"
       weight="33.333333"
       steps="2"
       helper_size="0"
       apply_no_weight="true"
       apply_with_weight="true"
       only_selected="false"
       uniform="false" /><inkscape:path-effect
       effect="bspline"
       id="path-effect124"
       is_visible="true"
       lpeversion="1.3"
       weight="33.333333"
       steps="2"
       helper_size="0"
       apply_no_weight="true"
       apply_with_weight="true"
       only_selected="false"
       uniform="false" /><inkscape:path-effect
       effect="bspline"
       id="path-effect123"
       is_visible="true"
       lpeversion="1.3"
       weight="33.333333"
       steps="2"
       helper_size="0"
       apply_no_weight="true"
       apply_with_weight="true"
       only_selected="false"
       uniform="false" /><inkscape:path-effect
       effect="bspline"
       id="path-effect122"
       is_visible="true"
       lpeversion="1.3"
       weight="33.333333"
       steps="2"
       helper_size="0"
       apply_no_weight="true"
       apply_with_weight="true"
       only_selected="false"
       uniform="false" /><inkscape:path-effect
       effect="bspline"
       id="path-effect121"
       is_visible="true"
       lpeversion="1.3"
       weight="33.333333"
       steps="2"
       helper_size="0"
       apply_no_weight="true"
       apply_with_weight="true"
       only_selected="false"
       uniform="false" /><inkscape:path-effect
       effect="bspline"
       id="path-effect119"
       is_visible="true"
       lpeversion="1.3"
       weight="33.333333"
       steps="2"
       helper_size="0"
       apply_no_weight="true"
       apply_with_weight="true"
       only_selected="false"
       uniform="false" /><inkscape:path-effect
       effect="bspline"
       id="path-effect118"
       is_visible="true"
       lpeversion="1.3"
       weight="33.333333"
       steps="2"
       helper_size="0"
       apply_no_weight="true"
       apply_with_weight="true"
       only_selected="false"
       uniform="false" /><inkscape:path-effect
       effect="bspline"
       id="path-effect117"
       is_visible="true"
       lpeversion="1.3"
       weight="33.333333"
       steps="2"
       helper_size="0"
       apply_no_weight="true"
       apply_with_weight="true"
       only_selected="false"
       uniform="false" /><inkscape:path-effect
       effect="bspline"
       id="path-effect116"
       is_visible="true"
       lpeversion="1.3"
       weight="33.333333"
       steps="2"
       helper_size="0"
       apply_no_weight="true"
       apply_with_weight="true"
       only_selected="false"
       uniform="false" /><inkscape:path-effect
       effect="bspline"
       id="path-effect105"
       is_visible="true"
       lpeversion="1.3"
       weight="33.333333"
       steps="2"
       helper_size="0"
       apply_no_weight="true"
       apply_with_weight="true"
       only_selected="false"
       uniform="false" /><inkscape:path-effect
       effect="bspline"
       id="path-effect104"
       is_visible="true"
       lpeversion="1.3"
       weight="33.333333"
       steps="2"
       helper_size="0"
       apply_no_weight="true"
       apply_with_weight="true"
       only_selected="false"
       uniform="false" /><linearGradient
       inkscape:collect="always"
       xlink:href="#linearGradient173"
       id="linearGradient174"
       x1="51.427353"
       y1="95.762878"
       x2="94.324234"
       y2="95.762878"
       gradientUnits="userSpaceOnUse"
       gradientTransform="translate(15.582346,-7.5806003)" /></defs><g
     inkscape:label="Layer 1"
     inkscape:groupmode="layer"
     id="layer1"
     transform="translate(-57.67058,-70.342198)"><g
       id="g1"><g
         id="g146"
         style="opacity:1"
         transform="translate(15.582346,-7.5806003)"><path
           id="path145"
           style="opacity:1;fill:#b42d2e;fill-opacity:1;stroke:#000000;stroke-width:0;stroke-linejoin:bevel;paint-order:fill markers stroke"
           d="M 103.83088,108.79412 A 30.871323,30.871323 0 0 1 72.959557,139.66544 30.871323,30.871323 0 0 1 42.088234,108.79412 30.871323,30.871323 0 0 1 72.959557,77.922798 30.871323,30.871323 0 0 1 103.83088,108.79412 Z" /><path
           id="path146"
           style="opacity:1;fill:#000000;fill-opacity:1;stroke:#000000;stroke-width:0;stroke-linejoin:bevel;paint-order:fill markers stroke"
           d="M 101.94485,108.79412 A 28.985294,28.985294 0 0 1 72.959557,137.77941 28.985294,28.985294 0 0 1 43.974262,108.79412 28.985294,28.985294 0 0 1 72.959557,79.808825 28.985294,28.985294 0 0 1 101.94485,108.79412 Z" /></g><path
         id="path148-8"
         style="fill:url(#linearGradient174);fill-opacity:1;stroke:#000000;stroke-width:0;stroke-linejoin:bevel;stroke-dasharray:none;stroke-opacity:1;paint-order:fill markers stroke"
         d="m 85.237526,75.510452 c -0.01932,0.001 -0.03514,0.02556 -0.04599,0.06356 -0.02482,0.08686 -0.02482,0.244249 0.0124,0.628902 0.03722,0.384653 0.112099,0.997024 0.19482,1.700155 0.08272,0.703132 0.173581,1.497121 0.285254,2.477368 0.111674,0.980247 0.243879,2.14628 0.314193,2.894914 0.0283,0.301279 0.04642,0.53486 0.05839,0.717269 -0.02077,0.04384 -0.04152,0.08817 -0.06253,0.132808 -0.314341,0.667975 -0.657747,1.433304 -0.854212,1.85105 -0.196464,0.417745 -0.245957,0.487811 -0.303857,0.518831 -0.05791,0.03102 -0.12399,0.02275 -0.19637,-0.01034 -0.02136,-0.0098 -0.0434,-0.02153 -0.0677,-0.03721 -0.01804,-0.259176 -0.04741,-0.529142 -0.0832,-0.742073 -0.04136,-0.246098 -0.09089,-0.415796 -0.212907,-0.843877 -0.122013,-0.42808 -0.316632,-1.114714 -0.622701,-2.099096 -0.306068,-0.984382 -0.723815,-2.266518 -1.085721,-3.379122 -0.361907,-1.112605 -0.668091,-2.055462 -0.848011,-2.524911 -0.179919,-0.469448 -0.233556,-0.465616 -0.276985,-0.442867 -0.04343,0.02275 -0.07647,0.06405 -0.09095,0.130225 -0.01448,0.06618 -0.01037,0.157483 0.06201,0.432532 0.07238,0.275048 0.212769,0.733887 0.506429,1.662431 0.293659,0.928543 0.740338,2.326392 1.131197,3.585827 0.390859,1.259435 0.725977,2.380361 0.88315,3.160014 0.04296,0.213085 0.07279,0.400742 0.09302,0.56534 -0.157086,-0.160194 -0.375204,-0.390166 -0.698666,-0.74104 -0.610067,-0.661768 -1.594485,-1.753582 -2.111499,-2.409155 -0.192008,-0.243466 -0.319702,-0.426476 -0.413928,-0.568958 0.349345,-0.239721 0.55812,-0.636199 0.558106,-1.059883 -9.7e-5,-0.709954 -0.575756,-1.285382 -1.28571,-1.285193 -0.316105,-2.6e-5 -0.621135,0.11643 -0.856795,0.327112 -0.02392,-0.04272 -0.04924,-0.08794 -0.07597,-0.136426 -0.246095,-0.446694 -0.610199,-1.146009 -0.819071,-1.512053 -0.208872,-0.366043 -0.26249,-0.398947 -0.314193,-0.388606 -0.0517,0.01034 -0.101277,0.06405 -0.117822,0.117822 -0.01655,0.05377 -6.5e-5,0.107353 0.14056,0.396875 0.140625,0.289522 0.405553,0.814751 0.630969,1.207678 0.132435,0.23085 0.250794,0.416141 0.345199,0.556039 -0.142252,0.211962 -0.218169,0.461481 -0.218075,0.716752 -4.9e-5,0.560757 0.363431,1.056831 0.898137,1.225765 0.07024,0.122758 0.170272,0.183758 0.236161,0.233577 0.08479,0.06411 0.113677,0.109631 0.142627,1.060917 0.02843,0.934263 0.05698,2.742282 0.05013,3.727421 -0.02392,-0.03992 -0.04961,-0.08173 -0.077,-0.125057 -0.316407,-0.500462 -0.871005,-1.232657 -1.419035,-1.954402 -0.54803,-0.721746 -1.08957,-1.433109 -1.695504,-2.270663 -0.605933,-0.837553 -1.276231,-1.801205 -1.644344,-2.291333 -0.368113,-0.490128 -0.434054,-0.506432 -0.487825,-0.502295 -0.05377,0.0041 -0.09508,0.02892 -0.115755,0.06821 -0.02068,0.03929 -0.02071,0.09295 0.06615,0.241846 0.08686,0.148898 0.260336,0.393099 0.500227,0.728121 0.239892,0.335021 0.546005,0.760899 1.00304,1.387512 0.457034,0.626613 1.065288,1.453792 1.654679,2.262394 0.589391,0.808603 1.159953,1.598598 1.542542,2.165243 0.356704,0.528307 0.549919,0.862473 0.65319,1.044381 -0.01958,0.323291 -0.0509,0.371842 -0.08423,0.401009 -0.04963,0.0434 -0.103302,0.04346 -0.208772,-0.0021 -0.10547,-0.0455 -0.262796,-0.136267 -0.773597,-0.479558 -0.510801,-0.343292 -1.375234,-0.939182 -2.204516,-1.563729 -0.829282,-0.624546 -1.623409,-1.277754 -2.177645,-1.703772 -0.127433,-0.09795 -0.242405,-0.18379 -0.346232,-0.257865 0.317097,-0.243354 0.502935,-0.620378 0.502811,-1.020093 -9.7e-5,-0.709752 -0.57544,-1.285096 -1.285192,-1.285193 -0.709752,9.7e-5 -1.285096,0.575441 -1.285193,1.285193 4e-6,0.669144 0.513384,1.226356 1.180289,1.281059 0.05176,0.03174 0.107879,0.05759 0.15813,0.07958 0.132355,0.05791 0.223196,0.09085 0.312126,0.303857 0.08893,0.213007 0.175678,0.606073 0.219108,0.802535 0.04343,0.196461 0.04386,0.196645 0.178284,0.719853 0.09377,0.364991 0.252831,0.984505 0.42478,1.6769 -0.115161,-0.06799 -0.252535,-0.149392 -0.418579,-0.252181 -0.521142,-0.322611 -1.323618,-0.856062 -2.024683,-1.313098 -0.701065,-0.457036 -1.301055,-0.837588 -1.629874,-1.017509 -0.32882,-0.179921 -0.386527,-0.159181 -0.415479,-0.121956 -0.02895,0.03722 -0.02892,0.09092 -0.0021,0.146761 0.02688,0.05584 0.0805,0.113615 0.320394,0.272851 0.23989,0.159237 0.665903,0.419994 1.100191,0.707451 0.434288,0.287457 0.8767,0.601339 1.404049,0.969449 0.527348,0.368111 1.139782,0.790012 1.559595,1.042314 0.09172,0.05513 0.174188,0.102292 0.248046,0.141594 0.02839,0.116561 0.05666,0.233861 0.08475,0.350883 0.246462,1.026929 0.47241,2.041383 0.682129,2.592089 -0.199145,-0.0431 -0.452343,-0.134023 -0.797884,-0.273885 -0.608007,-0.246098 -1.501423,-0.643243 -2.128036,-0.916223 -0.626612,-0.27298 -0.98642,-0.421645 -1.166337,-0.496094 -0.179917,-0.07445 -0.179714,-0.07488 -0.440283,-0.182417 -0.26057,-0.107537 -0.781688,-0.322387 -1.158069,-0.481625 -0.376381,-0.159238 -0.608137,-0.262481 -0.808736,-0.33693 -0.2006,-0.07445 -0.369955,-0.119884 -0.465088,-0.136426 -0.09513,-0.01654 -0.116268,-0.0041 -0.128674,0.02687 -0.01241,0.03102 -0.01629,0.08048 0.540018,0.359668 0.556307,0.279183 1.672816,0.787857 2.663404,1.230416 0.990588,0.442559 1.855399,0.818934 2.498555,1.108459 0.643156,0.289526 1.06492,0.492416 1.346171,0.6227 0.281252,0.13029 0.421603,0.18811 0.591179,0.1757 0.169575,-0.0124 0.368352,-0.095 0.579292,-0.19224 0.02184,-0.0101 0.04382,-0.02059 0.06563,-0.031 0.310361,-0.08868 0.701989,-0.220326 1.199927,-0.37052 0.761034,-0.229552 1.770015,-0.502197 2.655135,-0.706934 0.88512,-0.204736 1.646345,-0.341532 2.893364,-0.447001 1.24702,-0.10547 2.979995,-0.17982 4.456575,-0.21084 1.47658,-0.03102 2.696452,-0.01864 3.840076,0.07235 1.143625,0.09099 2.210795,0.260893 3.137276,0.413928 0.926481,0.153035 1.712229,0.28932 2.402954,0.434083 0.690725,0.144762 1.286479,0.297577 1.846916,0.46302 0.476657,0.140712 0.927915,0.290656 1.255735,0.414954 -0.0436,0.0172 -0.0866,0.0343 -0.12867,0.0506 -0.566723,0.22196 -0.989871,0.37524 -1.342039,0.51159 -0.29676,-0.0817 -0.626832,-0.16764 -0.985986,-0.25579 -0.96513,-0.2369 -2.140799,-0.488222 -3.246314,-0.666627 -1.105515,-0.178404 -2.140875,-0.284154 -3.170349,-0.368969 -1.029474,-0.08482 -2.052827,-0.14918 -3.061829,-0.15503 -1.009001,-0.0058 -2.003373,0.04681 -3.135209,0.146245 -1.131836,0.09944 -2.400888,0.245882 -3.530534,0.441833 -1.129645,0.195951 -2.119839,0.441458 -2.997233,0.692978 -0.877393,0.25152 -1.642091,0.5091 -2.042769,0.67799 -0.400678,0.1689 -0.43755,0.24922 -0.452169,0.55191 -0.0054,0.11183 -0.0077,0.25416 -0.0083,0.41548 -0.247551,-0.0636 -0.445068,-0.10072 -1.170471,-0.23616 -0.996784,-0.18613 -2.989896,-0.55799 -4.313432,-0.81443 -1.323536,-0.25643 -1.977464,-0.39734 -2.389001,-0.4842 -0.411538,-0.0869 -0.580801,-0.11989 -0.700733,-0.12196 -0.119932,-0.002 -0.19017,0.0268 -0.183968,0.0806 0.0062,0.0538 0.08855,0.1322 0.771012,0.30179 0.682461,0.16958 1.964618,0.43032 3.312976,0.72398 1.348359,0.29366 2.76309,0.62051 3.964616,0.88729 0.246532,0.0547 0.48392,0.10689 0.711585,0.15658 0.0016,0.14445 0.0036,0.2943 0.0057,0.4439 0,0 2.92e-4,-2.5e-4 0.365869,-0.12454 0.112308,-0.0382 0.258814,-0.0882 0.429948,-0.14573 0.530511,0.11434 0.985054,0.21161 1.346688,0.29197 0.670042,0.1489 1.022057,0.24027 1.241268,0.27957 0.219211,0.0393 0.305919,0.0269 0.328662,-0.0124 0.02274,-0.0393 -0.01853,-0.1059 -0.1757,-0.18449 -0.157171,-0.0786 -0.430159,-0.16941 -1.069185,-0.35346 -0.268617,-0.0774 -0.60188,-0.17108 -0.935344,-0.26407 0.217099,-0.0703 0.445717,-0.14307 0.675928,-0.21394 0.745784,-0.22958 1.506452,-0.43983 2.392619,-0.62994 0.886167,-0.1901 1.898001,-0.35999 3.202388,-0.48575 1.304388,-0.12576 2.901014,-0.20758 4.325318,-0.21343 1.424304,-0.006 2.675893,0.0643 3.974434,0.20464 1.298541,0.14038 2.644147,0.35101 3.767212,0.58498 1.123065,0.23397 2.023862,0.49137 2.740401,0.70486 0.08022,0.0239 0.158056,0.047 0.233578,0.0698 -0.144175,0.0423 -0.282023,0.0818 -0.409794,0.11472 -0.392927,0.10133 -0.690819,0.14262 -0.893486,0.17156 -0.202666,0.0289 -0.310551,0.0455 -0.353983,0.0847 -0.04343,0.0393 -0.02227,0.10128 0.077,0.1447 0.09927,0.0434 0.276906,0.0682 0.444417,0.0744 0.16751,0.006 0.324492,-0.006 0.403076,-0.0124 0.07858,-0.006 0.07878,-0.006 0.692981,-0.13229 0.226192,-0.0465 0.535795,-0.11006 0.898652,-0.185 0.18395,0.0553 0.33439,0.099 0.44855,0.12867 0.29246,0.076 0.34526,0.0588 0.38913,-0.15761 0.009,-0.043 0.0174,-0.0938 0.0253,-0.14986 0.42012,-0.0876 0.87096,-0.18258 1.32395,-0.27906 1.24289,-0.2647 2.5002,-0.54199 3.39565,-0.74052 0.89546,-0.19853 1.42865,-0.31828 1.88154,-0.41961 0.4529,-0.10134 0.82511,-0.18445 1.16634,-0.2651 0.34123,-0.0807 0.65155,-0.15914 0.83974,-0.22118 0.18819,-0.062 0.25424,-0.10746 0.28526,-0.14676 0.031,-0.0393 0.0269,-0.0723 -0.0289,-0.10749 -0.0419,-0.0264 -0.11266,-0.0539 -0.30955,-0.046 -0.0656,0.003 -0.14516,0.009 -0.24236,0.0212 -0.3888,0.0476 -1.05899,0.17975 -1.84485,0.35347 -0.78585,0.17371 -1.68728,0.38902 -2.67994,0.59376 -0.99265,0.20473 -2.07651,0.39887 -2.84995,0.54157 -0.3466,0.0639 -0.63062,0.11739 -0.8816,0.16846 0.005,-0.0738 0.01,-0.14398 0.0129,-0.2067 0.0146,-0.272 0.009,-0.40064 -0.0817,-0.5147 -0.0907,-0.11406 -0.26622,-0.21329 -0.73122,-0.37414 -0.13541,-0.0468 -0.295451,-0.0989 -0.478011,-0.15503 0.391391,-0.18343 0.465901,-0.19844 1.302761,-0.53226 0.0747,0.0358 0.12607,0.0592 0.16847,0.0677 0.0681,0.0136 0.11252,-0.0113 0.1819,-0.20877 0.17164,-0.0698 0.34587,-0.14157 0.5209,-0.214971 1.19325,-0.500465 2.42579,-1.075717 3.31917,-1.472778 0.89339,-0.397061 1.44776,-0.616408 1.911,-0.810803 0.46324,-0.194396 0.83549,-0.363749 1.08365,-0.47749 0.24816,-0.113741 0.37203,-0.171541 0.45889,-0.227377 0.0869,-0.05584 0.13694,-0.10953 0.14314,-0.163297 0.006,-0.05377 -0.0315,-0.107487 -0.14727,-0.111621 -0.11582,-0.0041 -0.30982,0.04125 -0.81029,0.237711 -0.50047,0.196465 -1.30701,0.543977 -2.15491,0.916223 -0.84789,0.372247 -1.73743,0.769271 -2.67839,1.172539 -0.49909,0.213896 -1.0126,0.429517 -1.49603,0.628385 0.12869,-0.495648 0.31208,-1.25465 0.5364,-2.049487 0.0827,-0.292905 0.17092,-0.590289 0.26148,-0.887285 0.29664,-0.167695 0.61115,-0.349147 0.96119,-0.558105 0.68245,-0.407404 1.50091,-0.920172 2.11925,-1.315165 0.61834,-0.394994 1.0365,-0.672219 1.30534,-0.868681 0.26885,-0.196463 0.38858,-0.312083 0.44649,-0.403076 0.0579,-0.09099 0.0538,-0.15708 0.0289,-0.194304 -0.0248,-0.03722 -0.0702,-0.04552 -0.27906,0.05581 -0.20887,0.101334 -0.5811,0.311972 -1.11466,0.634586 -0.53355,0.322615 -1.22858,0.756889 -1.82417,1.122929 -0.53971,0.331692 -0.998,0.60737 -1.4547,0.917774 0.13772,-0.437259 0.27597,-0.863844 0.40411,-1.260905 0.27299,-0.845828 0.50067,-1.557314 0.66611,-2.004012 0.06,-0.162119 0.11195,-0.289473 0.14883,-0.394808 0.007,2.33e-4 0.0145,4.06e-4 0.0217,5.17e-4 0.70995,-9.7e-5 1.28538,-0.575756 1.28519,-1.28571 -9e-5,-0.709752 -0.57544,-1.285096 -1.28519,-1.285193 -0.70975,9.7e-5 -1.2851,0.575441 -1.28519,1.285193 -1e-4,0.309197 0.11127,0.608067 0.31367,0.841809 0.0121,0.101966 0.0486,0.198636 0.0501,0.275952 0.002,0.107537 -0.064,0.17768 -0.29765,0.363802 -0.23369,0.186121 -0.63474,0.488076 -1.42472,1.05885 -0.78999,0.570775 -1.969058,1.410538 -2.661854,1.88619 -0.692797,0.475653 -0.899623,0.587032 -1.034046,0.609782 -0.134426,0.02275 -0.196356,-0.0432 -0.212906,-0.49196 -7.65e-4,-0.02074 -0.0015,-0.04225 -0.0021,-0.06459 0.09254,-0.09194 0.201089,-0.209304 0.33073,-0.355534 0.436353,-0.492189 1.110678,-1.31522 1.884122,-2.295467 0.773444,-0.980247 1.646114,-2.117323 2.266524,-2.907316 0.62042,-0.789993 0.98849,-1.232869 1.17254,-1.505851 0.18406,-0.272983 0.18398,-0.376174 0.1695,-0.438217 -0.0145,-0.06204 -0.0434,-0.08268 -0.0806,-0.08888 -0.0372,-0.0062 -0.0827,0.0021 -0.13436,0.03307 -0.0517,0.03102 -0.10951,0.0847 -0.2005,0.190169 -0.091,0.10547 -0.21528,0.262767 -0.67024,0.833541 -0.45497,0.570774 -1.24041,1.55502 -1.980762,2.485636 -0.740357,0.930617 -1.435294,1.807332 -2.018481,2.456698 -0.272837,0.303797 -0.521527,0.557868 -0.732772,0.763778 0.0097,-0.392252 0.0268,-0.853853 0.04599,-1.350822 0.03723,-0.963702 0.08266,-2.060036 0.136426,-2.690792 0.03344,-0.392538 0.07013,-0.604859 0.0801,-0.758093 0.680758,-0.03819 1.213244,-0.601297 1.213363,-1.283126 -7.1e-5,-0.184602 -0.0399,-0.367022 -0.116789,-0.534851 0.04489,-0.04609 0.09289,-0.102324 0.143661,-0.170016 0.195218,-0.260291 0.432384,-0.689062 0.623217,-1.031978 0.190834,-0.342916 0.335369,-0.599908 0.395325,-0.762227 0.05996,-0.16232 0.03496,-0.229876 -0.0015,-0.267168 -0.03656,-0.03729 -0.08478,-0.04428 -0.141077,-0.02015 -0.0563,0.02413 -0.120414,0.07937 -0.227893,0.24753 -0.107479,0.168165 -0.257928,0.449198 -0.478007,0.790649 -0.185554,0.287886 -0.4208,0.618842 -0.576709,0.836125 -0.240739,-0.238956 -0.566173,-0.373068 -0.905371,-0.373104 -0.709954,-1.89e-4 -1.285613,0.575239 -1.28571,1.285193 -1.7e-5,0.406429 0.192188,0.788921 0.518315,1.031461 0.0022,0.0088 0.0047,0.01705 0.0067,0.02532 0.02895,0.117877 0.03313,0.176145 -0.09095,0.329179 -0.124079,0.153034 -0.376466,0.401253 -0.920357,0.984436 -0.54389,0.583183 -1.379513,1.500939 -1.898592,2.044836 -0.226028,0.236834 -0.391962,0.402962 -0.518831,0.520899 0.03562,-0.169317 0.03486,-0.299683 0.05529,-0.432532 0.02632,-0.171092 0.08754,-0.346264 0.314193,-0.982369 0.226658,-0.636105 0.618658,-1.733007 1.032495,-2.923336 0.413837,-1.190328 0.849396,-2.47394 1.130164,-3.310392 0.280767,-0.836453 0.406836,-1.22571 0.452169,-1.456759 0.04533,-0.231048 0.0102,-0.304241 -0.02636,-0.336413 -0.03656,-0.03217 -0.07456,-0.0233 -0.11989,0.01033 -0.04533,0.03364 -0.09812,0.09225 -0.182934,0.302824 -0.08481,0.21057 -0.201508,0.573372 -0.381372,1.067635 -0.179865,0.494263 -0.422826,1.119826 -0.716753,1.935799 -0.293926,0.815973 -0.639228,1.822239 -0.9741,2.812232 -0.334872,0.989992 -0.659041,1.963508 -0.928109,2.63033 -0.14242,0.352955 -0.269412,0.619841 -0.373104,0.819588 -0.07647,-0.11 -0.181741,-0.30471 -0.375687,-0.713651 -0.2084,-0.439415 -0.519461,-1.125787 -0.88005,-1.901176 0.216075,-0.463638 0.359681,-1.203158 0.520382,-2.15129 0.160855,-0.949046 0.33925,-2.107108 0.472322,-3.064929 0.133072,-0.957822 0.220779,-1.715492 0.248564,-2.13372 0.02779,-0.418228 -0.0048,-0.497083 -0.05013,-0.530717 -0.04533,-0.03363 -0.103499,-0.022 -0.148828,0.01602 -0.04533,0.03802 -0.07777,0.102655 -0.142111,0.434598 -0.06434,0.331943 -0.160825,0.931329 -0.317293,1.912545 -0.156468,0.981216 -0.372918,2.344068 -0.567407,3.323828 -0.131826,0.664088 -0.253565,1.15189 -0.345199,1.490348 -0.488043,-1.03039 -1.029436,-2.125707 -1.328084,-2.78846 -0.301936,-0.670048 -0.355509,-0.897522 -0.415479,-1.104325 -0.0078,-0.02675 -0.01564,-0.05318 -0.02377,-0.07906 0.7219,-0.182795 1.227472,-0.832481 1.227316,-1.577165 -1.84e-4,-0.898081 -0.728177,-1.626073 -1.626258,-1.626257 -0.898283,-1.01e-4 -1.62659,0.727974 -1.626774,1.626257 -1.1e-4,0.723558 0.477742,1.360202 1.172538,1.562179 -0.0041,0.05839 -0.0048,0.115168 -0.0062,0.164331 -0.0041,0.148898 -0.01651,0.227326 -0.05994,0.330729 -0.04343,0.103404 -0.117715,0.231798 -0.349333,0.723987 -0.231619,0.492188 -0.620473,1.3479 -0.957564,2.061373 -0.174576,0.369499 -0.335468,0.701054 -0.49351,1.027327 -0.05442,-0.498357 -0.1449,-1.115792 -0.261483,-1.951302 -0.173715,-1.244953 -0.40507,-2.973994 -0.558106,-4.020426 -0.153035,-1.046433 -0.227862,-1.410166 -0.289904,-1.583883 -0.0349,-0.09772 -0.0656,-0.135694 -0.09043,-0.134359 z M 77.641607,96.50194 v 5.1e-4 c -0.80447,-0.008 -2.223491,0 -3.623551,0.0124 -1.40006,0.0124 -2.781273,0.0289 -3.786333,0.0517 -1.005059,0.0227 -1.633812,0.0517 -2.055688,0.0744 -0.421876,0.0227 -0.637103,0.0393 -0.790133,0.0599 -0.15303,0.0207 -0.243877,0.0453 -0.299723,0.0724 -0.05585,0.0269 -0.07648,0.0558 -0.07648,0.0909 10e-7,0.0352 0.0206,0.0765 0.163297,0.10955 0.142699,0.0331 0.407275,0.0579 1.350306,0.062 0.94303,0.004 2.564561,-0.0124 3.956347,-0.0186 1.391786,-0.006 2.553955,-0.002 3.430799,0.006 0.876844,0.008 1.468448,0.0207 1.894458,0.0227 0.426009,0.002 0.686195,-0.006 0.845426,-0.0124 0.159231,-0.006 0.217534,-0.0103 0.256832,-0.031 0.0393,-0.0207 0.05993,-0.0579 0.07028,-0.0951 0.01035,-0.0372 0.01035,-0.0749 -0.01654,-0.13281 -0.02689,-0.0579 -0.0806,-0.1364 -0.107487,-0.1757 -0.02689,-0.0393 -0.02683,-0.0393 -0.121956,-0.0517 -0.09513,-0.0124 -0.285386,-0.0372 -1.089856,-0.0455 z m 22.282878,0.0419 c -0.653495,-0.004 -1.042717,2e-5 -1.278475,0.0124 -0.235759,0.0124 -0.318315,0.0331 -0.359668,0.10128 -0.04135,0.0682 -0.04152,0.18445 0.31626,0.25683 0.357774,0.0724 1.073671,0.10128 1.431438,0.11576 0.35777,0.0145 0.35776,0.0145 1.13533,0.0186 0.77757,0.004 2.33266,0.0124 3.4618,0.0145 1.12915,0.002 1.83213,-0.002 2.51665,-0.002 0.68452,0 1.35061,0.004 1.78697,0.004 0.43635,0 0.64279,-0.004 0.77308,-0.0227 0.13028,-0.0186 0.18396,-0.0516 0.19637,-0.0909 0.0124,-0.0393 -0.0164,-0.0853 -0.28526,-0.12041 -0.26884,-0.0351 -0.77765,-0.0599 -2.01848,-0.10128 -1.24083,-0.0413 -3.21359,-0.0992 -4.65914,-0.13436 -1.44556,-0.0352 -2.36338,-0.0475 -3.016875,-0.0517 z m -22.782072,1.88413 c -0.04663,3.6e-4 -0.13884,0.0191 -0.50798,0.0951 -0.492186,0.10133 -1.476944,0.30428 -2.502689,0.51728 -1.025746,0.21301 -2.092473,0.43605 -2.987932,0.64079 -0.895458,0.20474 -1.619281,0.39113 -2.175577,0.53175 -0.556297,0.14063 -0.945082,0.23563 -1.151868,0.29766 -0.206786,0.062 -0.231503,0.0909 -0.206706,0.13642 0.0248,0.0455 0.09907,0.10752 0.417546,0.093 0.318479,-0.0145 0.881121,-0.10533 1.884123,-0.29559 1.003001,-0.19026 2.446344,-0.47996 3.58376,-0.71365 1.137417,-0.23369 1.96859,-0.41129 2.572453,-0.52917 0.603863,-0.11787 0.980197,-0.17567 1.201477,-0.22737 0.221279,-0.0517 0.287822,-0.0977 0.314709,-0.15142 0.02689,-0.0537 0.01449,-0.11572 -0.0124,-0.17363 -0.02689,-0.0579 -0.06869,-0.11161 -0.145211,-0.14883 -0.07652,-0.0372 -0.188082,-0.0579 -0.243912,-0.0682 -0.01396,-0.003 -0.02425,-0.004 -0.03979,-0.004 z m 22.624459,0.17673 c -0.05118,0.002 -0.08784,0.006 -0.117823,0.0134 -0.05997,0.0145 -0.093,0.0392 -0.101286,0.093 -0.0083,0.0538 0.0086,0.13689 0.432532,0.25684 0.423955,0.11994 1.255275,0.27689 2.221055,0.47749 0.96577,0.2006 2.06561,0.44484 2.93419,0.6351 0.86857,0.19025 1.5056,0.32654 2.02675,0.44028 0.52114,0.11375 0.92641,0.20462 1.22421,0.26045 0.2978,0.0558 0.48828,0.0766 0.6165,0.0724 0.12822,-0.004 0.194,-0.033 0.23048,-0.0724 0.0365,-0.0392 0.0433,-0.0883 -0.0145,-0.13436 -0.0578,-0.046 -0.17991,-0.0887 -0.51005,-0.16536 -0.33014,-0.0766 -0.86794,-0.18701 -1.13688,-0.24236 -0.26895,-0.0554 -0.26902,-0.0558 -0.74673,-0.18811 -0.47771,-0.13236 -1.43311,-0.39678 -2.25619,-0.59118 -0.82308,-0.19439 -1.51382,-0.31827 -2.14044,-0.44028 -0.62661,-0.12202 -1.18939,-0.24233 -1.603,-0.31264 -0.41361,-0.0703 -0.67792,-0.091 -0.853694,-0.0992 -0.08789,-0.004 -0.153975,-0.005 -0.205155,-0.003 z" /><path
         style="fill:#fcfdfe;fill-opacity:1;stroke:#000000;stroke-width:0;stroke-linejoin:bevel;stroke-dasharray:none;stroke-opacity:1;paint-order:fill markers stroke"
         d="m 55.934094,117.75039 c 0.02015,-0.27224 0.0605,-0.8176 0.213438,-1.64773 0.152934,-0.83013 0.418459,-1.94539 1.096781,-3.24413 0.678323,-1.29874 1.769385,-2.78083 3.067697,-4.2333 1.298312,-1.45247 2.803792,-2.87523 3.829535,-3.82653 1.025743,-0.95129 1.571683,-1.43105 1.910834,-1.69576 0.339152,-0.2647 0.471524,-0.31434 1.191201,-0.40533 0.719677,-0.091 2.026636,-0.22335 3.250912,-0.29779 1.224276,-0.0744 2.365797,-0.091 3.689343,-0.0496 1.323546,0.0414 2.829029,0.14063 3.730682,0.21508 0.901653,0.0744 1.199453,0.12408 1.538609,0.2647 0.339156,0.14063 0.719662,0.37224 1.488977,1.02575 0.769314,0.6535 1.92738,1.72885 3.035845,2.89522 1.108466,1.16637 2.16727,2.4237 2.969664,3.51562 0.802394,1.09192 1.348336,2.01837 1.728853,2.75459 0.380517,0.73622 0.595589,1.28217 0.785848,2.02667 0.190258,0.74449 0.355695,1.68748 0.372238,2.68014 0.01654,0.99266 -0.115807,2.03492 -0.446694,2.99448 -0.330888,0.95957 -0.860289,1.83639 -1.315256,2.44026 -0.454967,0.60386 -0.83547,0.93473 -1.422796,1.34007 -0.587326,0.40534 -1.381428,0.88511 -1.982458,1.16202 -0.60103,0.27692 -1.008932,0.35096 -1.69139,0.37164 -0.682458,0.0207 -1.6394,-0.012 -2.395002,-0.1193 -0.755602,-0.10733 -1.309819,-0.28931 -1.917821,-0.56229 -0.608002,-0.27299 -1.269757,-0.63695 -1.81365,-1.01126 -0.543892,-0.37432 -0.969894,-0.75896 -1.313187,-1.05676 -0.343293,-0.29779 -0.60386,-0.50873 -0.756893,-0.62659 -0.153033,-0.11787 -0.198524,-0.14267 -0.246067,-0.15094 -0.04754,-0.008 -0.09722,0 -0.122036,0.13442 -0.02482,0.13442 -0.02482,0.39499 0.101336,1.01954 0.126151,0.62455 0.378444,1.61304 0.67831,2.48575 0.299865,0.87271 0.647285,1.62959 1.007122,2.27274 0.359838,0.64316 0.732073,1.17256 1.098115,1.6358 0.366043,0.46324 0.72587,0.86029 1.050551,1.20152 0.324681,0.34122 0.614197,0.6266 0.794125,0.81274 0.179928,0.18613 0.250218,0.27296 0.295709,0.35359 0.04549,0.0806 0.06618,0.15513 0.0041,0.19442 -0.06204,0.0393 -0.206795,0.0434 -2.349304,0.0455 -2.142508,0.002 -6.282591,0.002 -8.373364,-0.0186 -2.090773,-0.0207 -2.132104,-0.062 -2.150722,-0.1137 -0.01862,-0.0517 -0.01448,-0.11377 0.08685,-0.22958 0.101335,-0.11581 0.29986,-0.28538 0.576977,-0.55423 0.277117,-0.26884 0.632809,-0.63694 0.916129,-0.94301 0.283321,-0.30607 0.494254,-0.55009 0.701058,-0.78999 0.206805,-0.23989 0.409462,-0.47563 0.572838,-0.68864 0.163376,-0.21301 0.287453,-0.40326 0.444624,-0.67211 0.157171,-0.26884 0.347425,-0.61626 0.529413,-0.98644 0.181987,-0.37018 0.355698,-0.7631 0.496324,-1.11673 0.140625,-0.35363 0.248163,-0.66797 0.322611,-1.01746 0.07445,-0.3495 0.115807,-0.73415 0.1551,-1.14155 0.03929,-0.4074 0.07652,-0.83754 0.09306,-1.14774 0.01654,-0.31021 0.01241,-0.50046 -0.01033,-0.60385 -0.02274,-0.1034 -0.06413,-0.11994 -0.225427,-0.008 -0.161301,0.11168 -0.442548,0.35157 -0.870631,0.70727 -0.428084,0.3557 -1.002982,0.8272 -1.670959,1.24701 -0.667976,0.41981 -1.42899,0.78791 -2.144531,1.01746 -0.715542,0.22956 -1.385563,0.32055 -1.948065,0.36191 -0.562502,0.0414 -1.01746,0.0331 -1.443478,0.008 -0.426017,-0.0248 -0.823063,-0.0662 -1.251148,-0.16751 -0.428085,-0.10133 -0.887173,-0.26263 -1.379367,-0.49839 -0.492194,-0.23576 -1.017459,-0.54595 -1.482766,-0.89958 -0.465307,-0.35364 -0.870629,-0.75069 -1.244943,-1.19946 -0.374314,-0.44876 -0.717597,-0.94921 -0.96576,-1.37523 -0.248164,-0.42601 -0.401191,-0.77756 -0.517002,-1.1374 -0.115811,-0.35984 -0.194394,-0.72794 -0.247645,-1.02419 -0.05325,-0.29624 -0.08117,-0.52061 -0.109084,-0.74499 -0.01137,-0.14378 -0.02275,-0.28756 -0.02895,-0.43855 -0.0062,-0.15099 -0.0072,-0.30931 -0.0078,-0.38834 -5.16e-4,-0.079 -5.2e-4,-0.0791 0.01963,-0.3513 z"
         id="path147"
         inkscape:path-effect="#path-effect147"
         inkscape:original-d="m 55.913948,118.02263 c 0.04029,-0.54448 0.08065,-1.08984 0.120974,-1.63476 0.265543,-1.11534 0.531069,-2.2306 0.79661,-3.34593 1.091102,-1.48215 2.182163,-2.96424 3.273243,-4.44635 1.505545,-1.42283 3.011029,-2.84559 4.516543,-4.26839 0.545968,-0.47979 1.091911,-0.95955 1.637869,-1.43933 0.132355,-0.0496 0.264705,-0.0993 0.397057,-0.1489 1.307013,-0.13236 2.613972,-0.26471 3.920958,-0.39706 1.141566,-0.0165 2.283087,-0.0331 3.424632,-0.0496 1.505545,0.0993 3.01103,0.19853 4.516543,0.29779 0.297799,0.0496 0.595588,0.0993 0.893382,0.1489 0.380524,0.23162 0.761031,0.46323 1.141545,0.69485 1.158113,1.07539 2.316175,2.15074 3.474265,3.2261 1.058843,1.25738 2.117648,2.51471 3.176471,3.77206 0.545967,0.92649 1.091911,1.85294 1.637866,2.77942 0.215079,0.54596 0.430149,1.09191 0.64522,1.63786 0.165447,0.94304 0.330883,1.88603 0.496324,2.82905 -0.132355,1.0423 -0.264705,2.08456 -0.397057,3.12683 -0.529423,0.87686 -1.058826,1.75368 -1.588236,2.63052 -0.380523,0.33089 -0.761029,0.66176 -1.141544,0.99265 -0.794134,0.47979 -1.588236,0.95956 -2.382354,1.43934 -0.407932,0.0741 -0.815843,0.14809 -1.223777,0.22213 -0.956982,-0.0327 -1.913926,-0.0653 -2.870891,-0.098 -0.554238,-0.18199 -1.108456,-0.36397 -1.662684,-0.54596 -0.661778,-0.36397 -1.32353,-0.72794 -1.985295,-1.09191 -0.426019,-0.38466 -0.852022,-0.7693 -1.278033,-1.15395 -0.260575,-0.21094 -0.521139,-0.42188 -0.781709,-0.63281 -0.0455,-0.0248 -0.09099,-0.0496 -0.136488,-0.0744 -0.04963,0.008 -0.09927,0.0165 -0.148897,0.0248 0,0.26057 0,0.52114 0,0.78171 0.252302,0.98853 0.504595,1.97702 0.756894,2.96553 0.347432,0.75691 0.694851,1.51379 1.042278,2.27068 0.37225,0.52942 0.744485,1.05882 1.116727,1.58823 0.359841,0.39707 0.719669,0.79412 1.079505,1.19118 0.289529,0.28539 0.579044,0.57077 0.868567,0.85616 0.07031,0.0869 0.140623,0.17371 0.210936,0.26057 0.02069,0.0744 0.04136,0.1489 0.06204,0.22334 -0.144762,0.004 -0.289521,0.008 -0.434282,0.0124 -4.140248,0 -8.280331,0 -12.420497,0 -0.04136,-0.0414 -0.08272,-0.0827 -0.124082,-0.12408 0.0041,-0.062 0.0083,-0.12408 0.01241,-0.18612 0.198533,-0.16958 0.397061,-0.33915 0.595588,-0.50873 0.355706,-0.36811 0.711398,-0.73621 1.067096,-1.10432 0.210942,-0.24403 0.421876,-0.48805 0.632812,-0.73208 0.202671,-0.23576 0.405331,-0.4715 0.607997,-0.70726 0.124084,-0.19026 0.248163,-0.38051 0.372242,-0.57077 0.190262,-0.34743 0.380516,-0.69485 0.570773,-1.04228 0.173717,-0.39293 0.347427,-0.78585 0.521139,-1.17877 0.10754,-0.31434 0.215074,-0.62868 0.322612,-0.94301 0.04136,-0.38466 0.08272,-0.76931 0.124079,-1.15395 0.03723,-0.43016 0.07445,-0.8603 0.111675,-1.29045 -0.0041,-0.19026 -0.0083,-0.38051 -0.01241,-0.57077 -0.04136,-0.0165 -0.08272,-0.0331 -0.124082,-0.0496 -0.281254,0.23989 -0.562499,0.47978 -0.843748,0.71967 -0.574921,0.47151 -1.149818,0.94301 -1.724726,1.41452 -0.761045,0.36811 -1.522058,0.73621 -2.283087,1.10432 -0.670052,0.091 -1.340075,0.18198 -2.010111,0.27298 -0.454972,-0.008 -0.909926,-0.0165 -1.36489,-0.0248 -0.397066,-0.0414 -0.794118,-0.0827 -1.191176,-0.12408 -0.45911,-0.16131 -0.918199,-0.32261 -1.377299,-0.48392 -0.525285,-0.31021 -1.050552,-0.6204 -1.575826,-0.9306 -0.405339,-0.39707 -0.810662,-0.79412 -1.215993,-1.19118 -0.343297,-0.50047 -0.686581,-1.00092 -1.02987,-1.50138 -0.153038,-0.35157 -0.306067,-0.70312 -0.4591,-1.05469 -0.07859,-0.36811 -0.15717,-0.73621 -0.235754,-1.10432 -0.02792,-0.22438 -0.08375,-0.67313 -0.08375,-0.67313 0,0 -0.02275,-0.28756 -0.03412,-0.43134 -10e-4,-0.1582 -0.0021,-0.31652 -0.0031,-0.47458 z"
         sodipodi:nodetypes="sccccccccccccccccccccccccccccccccccccccccccccccccccccccccccccccccssss"
         transform="translate(15.582346,-7.5806003)" /></g></g></svg>
